HIERARCHY
ROOT Hips
{
    OFFSET 0.000000 0.000000 0.000000
    CHANNELS 6 Xposition Yposition Zposition Zrotation Xrotation Yrotation
    JOINT Spine
    {
        OFFSET -0.000000 14.517291 0.000000
        CHANNELS 3 Zrotation Xrotation Yrotation
        JOINT Spine1
        {
            OFFSET -0.000000 37.558300 0.000000
            CHANNELS 3 Zrotation Xrotation Yrotation
            JOINT Neck
            {
                OFFSET -0.000000 37.404057 3.400369
                CHANNELS 3 Zrotation Xrotation Yrotation
                JOINT Head
                {
                    OFFSET -0.000000 24.785618 -3.540803
                    CHANNELS 3 Zrotation Xrotation Yrotation
                    End Site
                    {
                        OFFSET -0.000000 35.408028 0.000000
                    }
                }
            }
            JOINT LeftShoulder
            {
                OFFSET 6.992933 33.973492 -0.192664
                CHANNELS 3 Zrotation Xrotation Yrotation
                JOINT LeftArm
                {
                    OFFSET 21.527611 0.000000 0.000000
                    CHANNELS 3 Zrotation Xrotation Yrotation
                    JOINT LeftForeArm
                    {
                        OFFSET 56.353916 0.000000 0.000000
                        CHANNELS 3 Zrotation Xrotation Yrotation
                        JOINT LeftHand
                        {
                            OFFSET 47.774071 0.000000 0.000000
                            CHANNELS 3 Zrotation Xrotation Yrotation
                            End Site
                            {
                                OFFSET 26.556021 0.000000 0.000000
                            }
                        }
                    }
                }
            }
            JOINT RightShoulder
            {
                OFFSET -7.065357 33.973492 -0.192664
                CHANNELS 3 Zrotation Xrotation Yrotation
                JOINT RightArm
                {
                    OFFSET -21.527611 0.000000 0.000000
                    CHANNELS 3 Zrotation Xrotation Yrotation
                    JOINT RightForeArm
                    {
                        OFFSET -56.353916 0.000000 0.000000
                        CHANNELS 3 Zrotation Xrotation Yrotation
                        JOINT RightHand
                        {
                            OFFSET -47.774071 0.000000 0.000000
                            CHANNELS 3 Zrotation Xrotation Yrotation
                            End Site
                            {
                                OFFSET -26.556021 0.000000 0.000000
                            }
                        }
                    }
                }
            }
        }
    }
    JOINT LeftUpLeg
    {
        OFFSET 17.704014 0.000000 0.000000
        CHANNELS 3 Zrotation Xrotation Yrotation
        JOINT LeftLeg
        {
            OFFSET -0.000000 -81.181816 0.000000
            CHANNELS 3 Zrotation Xrotation Yrotation
            JOINT LeftFoot
            {
                OFFSET -0.000000 -62.821102 0.000000
                CHANNELS 3 Zrotation Xrotation Yrotation
                JOINT LeftToeBase
                {
                    OFFSET -0.000000 -11.507608 26.556021
                    CHANNELS 3 Zrotation Xrotation Yrotation
                    End Site
                    {
                        OFFSET -0.000000 0.000000 7.081605
                    }
                }
            }
        }
    }
    JOINT RightUpLeg
    {
        OFFSET -17.704014 0.000000 0.000000
        CHANNELS 3 Zrotation Xrotation Yrotation
        JOINT RightLeg
        {
            OFFSET -0.000000 -81.181816 0.000000
            CHANNELS 3 Zrotation Xrotation Yrotation
            JOINT RightFoot
            {
                OFFSET -0.000000 -62.821102 0.000000
                CHANNELS 3 Zrotation Xrotation Yrotation
                JOINT RightToeBase
                {
                    OFFSET -0.000000 -11.507608 26.556021
                    CHANNELS 3 Zrotation Xrotation Yrotation
                    End Site
                    {
                        OFFSET -0.000000 0.000000 7.081605
                    }
                }
            }
        }
    }
}
MOTION
Frames:    11
Frame Time:    0.008333
18.224174    154.041687    -108.734825    -1.166273    -3.175301    31.958241    -1.145847    -1.921811    0.600284    -4.911793    2.856066    0.328903    14.698848    -5.654130    -1.969875    3.947148    7.731049    -4.689985    8.490808    5.534420    -20.472549    -28.043560    20.841881    -59.353237    -15.553438    0.966077    -92.968651    17.368538    -16.207947    -5.221056    -13.145068    -4.433413    -1.873530    25.830032    -21.946091    63.764690    -14.133569    -14.640679    49.442093    -9.837376    -10.611897    27.541206    9.281608    -10.405405    -7.364836    -14.769566    43.000546    -20.545059    15.084269    -25.688087    45.253292    0.000000    0.000000    0.000000    -19.883625    -17.497374    -14.208456    6.072332    17.071278    -17.846256    9.060796    1.528097    -25.451611    0.000000    0.000000    0.000000    
18.201033    154.093475    -108.638474    -1.155121    -3.194398    32.112961    -1.142852    -1.915065    0.561603    -4.925863    2.859064    0.316560    14.672422    -5.645813    -1.981202    3.992372    7.714376    -4.691339    8.496765    5.546429    -20.473692    -27.986891    20.896671    -59.385380    -15.505645    0.898416    -93.002022    17.303762    -16.223753    -5.183918    -13.155528    -4.430154    -1.890993    25.798935    -21.918581    63.746887    -14.125826    -14.650030    49.494270    -9.811172    -10.611607    27.549511    9.296234    -10.345200    -7.434230    -14.688139    42.889473    -20.659538    15.019244    -25.659639    45.215714    0.000000    0.000000    0.000000    -19.828897    -17.514685    -13.445107    6.180297    17.174805    -17.407595    9.020111    1.196836    -25.534386    0.000000    0.000000    0.000000    
18.166294    154.152802    -108.531502    -1.146288    -3.223322    32.270100    -1.153054    -1.895493    0.531376    -4.927739    2.847431    0.306124    14.708686    -5.644377    -2.000261    3.952227    7.719869    -4.721585    8.524261    5.571251    -20.490765    -27.981905    20.890049    -59.410801    -15.508533    0.921523    -92.991425    17.244066    -16.198929    -5.182740    -13.145904    -4.437862    -1.905325    25.777216    -21.904785    63.720943    -14.090094    -14.620189    49.543022    -9.753846    -10.580082    27.588556    9.328381    -10.275486    -7.514414    -14.634806    42.766922    -20.733690    14.955790    -25.604597    45.161720    0.000000    0.000000    0.000000    -19.729837    -17.515007    -12.868328    6.164762    17.234324    -17.047567    9.011858    0.962285    -25.298979    0.000000    0.000000    0.000000    
18.134634    154.217514    -108.422050    -1.139781    -3.233656    32.436363    -1.182273    -1.892900    0.484682    -4.845979    2.836796    0.288392    14.651198    -5.654861    -2.013705    3.904331    7.731605    -4.729373    8.427464    5.571492    -20.483149    -27.940340    20.928366    -59.394146    -15.512617    0.952745    -93.014313    17.239023    -16.179916    -5.185716    -13.239116    -4.438131    -1.910462    25.827202    -21.921999    63.725193    -14.053933    -14.538486    49.608994    -9.741011    -10.497149    27.545563    9.344289    -10.218446    -7.614977    -14.563278    42.627995    -20.815128    14.871037    -25.559942    45.106983    0.000000    0.000000    0.000000    -19.652750    -17.519453    -12.149549    6.222873    17.272091    -16.713320    8.985074    0.761635    -25.211472    0.000000    0.000000    0.000000    
18.107029    154.275589    -108.306488    -1.125190    -3.250180    32.609390    -1.200231    -1.900927    0.438040    -4.813748    2.855428    0.273351    14.590719    -5.681277    -2.044432    3.943619    7.761573    -4.750655    8.396162    5.580821    -20.485704    -27.917040    20.944000    -59.401680    -15.533176    0.977909    -93.018921    17.251678    -16.179770    -5.189028    -13.280622    -4.444514    -1.910134    25.876432    -21.971382    63.719696    -13.951023    -14.468851    49.696312    -9.807517    -10.477509    27.546600    9.353242    -10.155784    -7.699355    -14.469116    42.508831    -20.939468    14.804338    -25.500694    45.067989    0.000000    0.000000    0.000000    -19.562037    -17.494370    -11.640718    6.180294    17.293264    -16.344414    9.075095    0.552508    -24.901041    0.000000    0.000000    0.000000    
18.074997    154.337341    -108.193146    -1.116241    -3.268624    32.788006    -1.194927    -1.890651    0.396035    -4.818930    2.830275    0.258367    14.551755    -5.663659    -2.068396    3.993361    7.768260    -4.761978    8.404879    5.593486    -20.522219    -27.937244    20.956617    -59.380844    -15.526903    1.002065    -93.012665    17.216803    -16.150074    -5.212807    -13.299532    -4.452971    -1.908309    25.865162    -21.960924    63.676907    -13.926495    -14.441132    49.744194    -9.806810    -10.453756    27.548038    9.368648    -10.099914    -7.824100    -14.400888    42.387772    -21.034927    14.739525    -25.451803    45.039532    0.000000    0.000000    0.000000    -19.491140    -17.496500    -11.000222    6.213216    17.338388    -16.050924    8.846766    0.445559    -24.560055    0.000000    0.000000    0.000000    
18.033556    154.402527    -108.077049    -1.114981    -3.284857    32.965229    -1.176774    -1.884941    0.360186    -4.888063    2.812886    0.246629    14.661374    -5.637278    -2.076286    3.935039    7.744102    -4.792470    8.524426    5.631861    -20.549139    -27.976650    20.941050    -59.421734    -15.502208    1.002393    -92.983826    17.149914    -16.115507    -5.233468    -13.213577    -4.460066    -1.925816    25.840889    -22.006073    63.660435    -13.819817    -14.371583    49.799969    -9.849226    -10.440783    27.614538    9.397005    -10.054310    -7.937987    -14.343373    42.268242    -21.121599    14.653834    -25.397266    45.002914    0.000000    0.000000    0.000000    -19.411942    -17.481419    -10.420520    6.250709    17.371790    -15.627814    8.892735    0.235665    -24.330975    0.000000    0.000000    0.000000    
17.989031    154.458435    -107.963272    -1.112961    -3.294026    33.142727    -1.156455    -1.869912    0.325346    -4.872463    2.801743    0.234681    14.542208    -5.668352    -2.118958    4.011899    7.748951    -4.811248    8.473931    5.633745    -20.554369    -27.936806    20.965042    -59.412373    -15.515504    1.030156    -93.022301    17.209980    -16.117609    -5.241976    -13.292293    -4.483026    -1.976996    25.907711    -22.009367    63.691498    -13.830571    -14.311151    49.823105    -9.909135    -10.390878    27.671537    9.424999    -10.016105    -8.076669    -14.317410    42.144886    -21.167002    14.590118    -25.342989    44.964878    0.000000    0.000000    0.000000    -19.332926    -17.493425    -9.807899    6.274343    17.420181    -15.260766    9.070005    0.080034    -24.108633    0.000000    0.000000    0.000000    
17.948061    154.519470    -107.832314    -1.112823    -3.317307    33.328865    -1.158630    -1.868482    0.291176    -4.836575    2.831074    0.223304    14.495749    -5.713563    -2.148730    4.036320    7.732833    -4.836237    8.469113    5.633997    -20.553696    -27.953119    20.947180    -59.442730    -15.574133    1.098582    -93.009705    17.271774    -16.115255    -5.258931    -13.310715    -4.525433    -2.033757    25.875319    -21.988672    63.680393    -13.818252    -14.320168    49.874004    -9.828251    -10.380042    27.687403    9.468274    -9.954780    -8.233216    -14.299029    42.002525    -21.225191    14.512527    -25.303989    44.939587    0.000000    0.000000    0.000000    -19.241165    -17.456139    -9.211219    6.289036    17.415216    -14.768024    9.151588    -0.057692    -23.928280    0.000000    0.000000    0.000000    
17.895296    154.578156    -107.707474    -1.116676    -3.331537    33.505798    -1.170338    -1.867835    0.253122    -4.785316    2.832812    0.209473    14.453846    -5.712805    -2.168306    4.047384    7.690597    -4.845709    8.458021    5.654869    -20.558382    -27.934378    20.946230    -59.470028    -15.587668    1.095773    -93.011169    17.365602    -16.136038    -5.252888    -13.329903    -4.551952    -2.022859    25.784569    -21.973518    63.608940    -13.842937    -14.365310    49.903206    -9.793459    -10.399808    27.666431    9.516485    -9.903307    -8.363444    -14.268764    41.858345    -21.288366    14.453159    -25.254143    44.900494    0.000000    0.000000    0.000000    -19.145351    -17.435579    -8.529297    6.329169    17.384405    -14.575965    9.172711    -0.056803    -23.553778    0.000000    0.000000    0.000000    
17.844912    154.638626    -107.581223    -1.103547    -3.359088    33.677517    -1.154491    -1.842745    0.232264    -4.800342    2.830679    0.202658    14.503504    -5.720431    -2.167443    3.980346    7.659929    -4.859891    8.471804    5.658710    -20.596186    -27.896109    20.980267    -59.472069    -15.570810    1.022645    -93.027901    17.346567    -16.191496    -5.245853    -13.324152    -4.513949    -2.058988    25.761215    -22.024658    63.615730    -13.797507    -14.384019    49.917957    -9.873664    -10.465592    27.756762    9.559690    -9.826454    -8.469584    -14.232025    41.709770    -21.335316    14.369807    -25.206572    44.832489    0.000000    0.000000    0.000000    -19.053055    -17.415676    -8.002356    6.328645    17.413612    -14.194980    9.138321    -0.057092    -23.332319    0.000000    0.000000    0.000000    
